<svg width="18" height="18" viewBox="0 0 18 18" fill="none" xmlns="http://www.w3.org/2000/svg">
<path d="M9.75 0.75C9.75 1.16421 9.41421 1.5 9 1.5C8.58579 1.5 8.25 1.16421 8.25 0.75C8.25 0.335786 8.58579 0 9 0C9.41421 0 9.75 0.335786 9.75 0.75Z" fill="black" fill-opacity="0.5"/>
<path fill-rule="evenodd" clip-rule="evenodd" d="M9 16.5C11.8995 16.5 14.25 14.1495 14.25 11.25C14.25 8.60515 12.2942 6.41709 9.75 6.05317V3C9.75 2.58579 9.41421 2.25 9 2.25C8.58579 2.25 8.25 2.58579 8.25 3V6.05317C5.70578 6.41709 3.75 8.60515 3.75 11.25C3.75 14.1495 6.10051 16.5 9 16.5ZM9 15C11.0711 15 12.75 13.3211 12.75 11.25C12.75 9.17893 11.0711 7.5 9 7.5C6.92893 7.5 5.25 9.17893 5.25 11.25C5.25 13.3211 6.92893 15 9 15Z" fill="black" fill-opacity="0.5"/>
</svg>
