<svg width="18" height="18" viewBox="0 0 18 18" fill="none" xmlns="http://www.w3.org/2000/svg">
<path d="M12.4502 3C14.1302 3 14.9706 3.00018 15.6123 3.32715C16.1765 3.61472 16.6353 4.07347 16.9229 4.6377C17.2498 5.27941 17.25 6.11978 17.25 7.7998V10.2002C17.25 11.8802 17.2498 12.7206 16.9229 13.3623C16.6353 13.9265 16.1765 14.3853 15.6123 14.6729C14.9706 14.9998 14.1302 15 12.4502 15H5.5498C3.86978 15 3.02941 14.9998 2.3877 14.6729C1.82347 14.3853 1.36472 13.9265 1.07715 13.3623C0.750181 12.7206 0.75 11.8802 0.75 10.2002V7.7998C0.75 6.11978 0.750181 5.27941 1.07715 4.6377C1.36472 4.07347 1.82347 3.61472 2.3877 3.32715C3.02941 3.00018 3.86978 3 5.5498 3H12.4502ZM2.25 10.2002C2.25 11.0647 2.25144 11.6229 2.28613 12.0479C2.31936 12.4546 2.3753 12.6063 2.41309 12.6807C2.5569 12.9629 2.78709 13.1931 3.06934 13.3369C3.14365 13.3747 3.29542 13.4306 3.70215 13.4639C4.12708 13.4986 4.68534 13.5 5.5498 13.5H12.4502C13.3147 13.5 13.8729 13.4986 14.2979 13.4639C14.7046 13.4306 14.8563 13.3747 14.9307 13.3369C15.2129 13.1931 15.4431 12.9629 15.5869 12.6807C15.6247 12.6063 15.6806 12.4546 15.7139 12.0479C15.7486 11.6229 15.75 11.0647 15.75 10.2002V8.25H2.25V10.2002ZM6 10.5C6.41421 10.5 6.75 10.8358 6.75 11.25C6.75 11.6642 6.41421 12 6 12H4.5C4.08579 12 3.75 11.6642 3.75 11.25C3.75 10.8358 4.08579 10.5 4.5 10.5H6ZM5.5498 4.5C4.68534 4.5 4.12708 4.50144 3.70215 4.53613C3.29542 4.56936 3.14365 4.6253 3.06934 4.66309C2.78709 4.8069 2.5569 5.03709 2.41309 5.31934C2.3753 5.39365 2.31936 5.54542 2.28613 5.95215C2.26805 6.17369 2.25933 6.43147 2.25488 6.75H15.7451C15.7407 6.43147 15.732 6.17369 15.7139 5.95215C15.6806 5.54542 15.6247 5.39365 15.5869 5.31934C15.4431 5.03709 15.2129 4.8069 14.9307 4.66309C14.8563 4.6253 14.7046 4.56936 14.2979 4.53613C13.8729 4.50144 13.3147 4.5 12.4502 4.5H5.5498Z" fill="black" fill-opacity="0.5"/>
</svg>
