<svg width="18" height="18" viewBox="0 0 18 18" fill="none" xmlns="http://www.w3.org/2000/svg">
<g clip-path="url(#clip0_59_225)">
<path d="M5.25 9.75C5.25 10.1642 4.91421 10.5 4.5 10.5C4.08579 10.5 3.75 10.1642 3.75 9.75C3.75 9.33579 4.08579 9 4.5 9C4.91421 9 5.25 9.33579 5.25 9.75Z" fill="black"/>
<path d="M8.25 9.75C8.25 10.1642 7.91421 10.5 7.5 10.5C7.08579 10.5 6.75 10.1642 6.75 9.75C6.75 9.33579 7.08579 9 7.5 9C7.91421 9 8.25 9.33579 8.25 9.75Z" fill="black"/>
<path d="M10.5 10.5C10.9142 10.5 11.25 10.1642 11.25 9.75C11.25 9.33579 10.9142 9 10.5 9C10.0858 9 9.75 9.33579 9.75 9.75C9.75 10.1642 10.0858 10.5 10.5 10.5Z" fill="black"/>
<path d="M14.25 9.75C14.25 10.1642 13.9142 10.5 13.5 10.5C13.0858 10.5 12.75 10.1642 12.75 9.75C12.75 9.33579 13.0858 9 13.5 9C13.9142 9 14.25 9.33579 14.25 9.75Z" fill="black"/>
<path d="M4.5 13.5C4.91421 13.5 5.25 13.1642 5.25 12.75C5.25 12.3358 4.91421 12 4.5 12C4.08579 12 3.75 12.3358 3.75 12.75C3.75 13.1642 4.08579 13.5 4.5 13.5Z" fill="black"/>
<path d="M8.25 12.75C8.25 13.1642 7.91421 13.5 7.5 13.5C7.08579 13.5 6.75 13.1642 6.75 12.75C6.75 12.3358 7.08579 12 7.5 12C7.91421 12 8.25 12.3358 8.25 12.75Z" fill="black"/>
<path d="M10.5 13.5C10.9142 13.5 11.25 13.1642 11.25 12.75C11.25 12.3358 10.9142 12 10.5 12C10.0858 12 9.75 12.3358 9.75 12.75C9.75 13.1642 10.0858 13.5 10.5 13.5Z" fill="black"/>
<path fill-rule="evenodd" clip-rule="evenodd" d="M6.2679 0.75H11.7321C12.5449 0.749993 13.2006 0.749987 13.7315 0.793364C14.2781 0.838026 14.7582 0.932385 15.2025 1.15873C15.9081 1.51825 16.4817 2.09193 16.8413 2.79754C17.0676 3.24175 17.162 3.7219 17.2066 4.26853C17.25 4.79942 17.25 5.455 17.25 6.2678V11.7321C17.25 12.5449 17.25 13.2006 17.2066 13.7315C17.162 14.2781 17.0676 14.7582 16.8413 15.2025C16.4817 15.9081 15.9081 16.4817 15.2025 16.8413C14.7582 17.0676 14.2781 17.162 13.7315 17.2066C13.2006 17.25 12.545 17.25 11.7322 17.25H6.26788C5.45508 17.25 4.79942 17.25 4.26853 17.2066C3.7219 17.162 3.24175 17.0676 2.79754 16.8413C2.09193 16.4817 1.51825 15.9081 1.15873 15.2025C0.932385 14.7582 0.838026 14.2781 0.793364 13.7315C0.749987 13.2006 0.749993 12.5449 0.75 11.7321V6.2679C0.749993 5.45506 0.749987 4.79944 0.793364 4.26853C0.838026 3.7219 0.932385 3.24175 1.15873 2.79754C1.51825 2.09193 2.09193 1.51825 2.79754 1.15873C3.24175 0.932385 3.7219 0.838026 4.26853 0.793364C4.79944 0.749987 5.45506 0.749993 6.2679 0.75ZM4.39068 2.28838C3.93681 2.32547 3.67604 2.3946 3.47852 2.49524C3.05516 2.71095 2.71095 3.05516 2.49524 3.47852C2.3946 3.67604 2.32547 3.93681 2.28838 4.39068C2.26847 4.63442 2.25888 4.91469 2.25427 5.25H15.7457C15.7411 4.91469 15.7315 4.63442 15.7116 4.39068C15.6745 3.93681 15.6054 3.67604 15.5048 3.47852C15.289 3.05516 14.9448 2.71095 14.5215 2.49524C14.324 2.3946 14.0632 2.32547 13.6093 2.28838C13.1467 2.25058 12.5525 2.25 11.7 2.25H6.3C5.44755 2.25 4.85331 2.25058 4.39068 2.28838ZM15.75 6.75H2.25V11.7C2.25 12.5525 2.25058 13.1467 2.28838 13.6093C2.32547 14.0632 2.3946 14.324 2.49524 14.5215C2.71095 14.9448 3.05516 15.289 3.47852 15.5048C3.67604 15.6054 3.93681 15.6745 4.39068 15.7116C4.85331 15.7494 5.44755 15.75 6.3 15.75H11.7C12.5525 15.75 13.1467 15.7494 13.6093 15.7116C14.0632 15.6745 14.324 15.6054 14.5215 15.5048C14.9448 15.289 15.289 14.9448 15.5048 14.5215C15.6054 14.324 15.6745 14.0632 15.7116 13.6093C15.7494 13.1467 15.75 12.5525 15.75 11.7V6.75Z" fill="black"/>
</g>
<defs>
<clipPath id="clip0_59_225">
<rect width="18" height="18" fill="white"/>
</clipPath>
</defs>
</svg>
