<svg width="18" height="18" viewBox="0 0 18 18" fill="none" xmlns="http://www.w3.org/2000/svg">
<path fill-rule="evenodd" clip-rule="evenodd" d="M14.25 6.75C14.25 9.39485 12.2942 11.5829 9.75 11.9468V15C9.75 15.4142 9.41421 15.75 9 15.75C8.58579 15.75 8.25 15.4142 8.25 15V11.9468C5.70578 11.5829 3.75 9.39485 3.75 6.75C3.75 3.8505 6.1005 1.5 9 1.5C11.8995 1.5 14.25 3.8505 14.25 6.75ZM9 10.5C11.0711 10.5 12.75 8.82107 12.75 6.75C12.75 4.67893 11.0711 3 9 3C6.92893 3 5.25 4.67893 5.25 6.75C5.25 8.82107 6.92893 10.5 9 10.5Z" fill="black" fill-opacity="0.5"/>
<path d="M9 18C9.41421 18 9.75 17.6642 9.75 17.25C9.75 16.8358 9.41421 16.5 9 16.5C8.58579 16.5 8.25 16.8358 8.25 17.25C8.25 17.6642 8.58579 18 9 18Z" fill="black" fill-opacity="0.5"/>
</svg>
